<svg width="110" height="141" viewBox="0 0 110 141" fill="none" xmlns="http://www.w3.org/2000/svg">
    <path d="M8.06327 102.182C17.5667 97.4631 17.1679 93.5421 33.9816 94.7384C49.6656 95.8017 45.7446 90.2193 60.9633 85.6337C80.7676 79.5861 86.9481 87.6939 91.6001 94.8048C96.2522 101.982 90.4704 121.388 70.7325 116.005C59.3683 112.948 61.6279 111.619 53.3872 122.717C45.1465 133.815 41.8236 143.717 23.4814 139.796C15.6394 138.135 19.8927 127.701 8.3291 126.04C0.553595 124.91 -5.56048 108.96 8.06327 102.182Z" fill="#F8DFCD"/>
    <path d="M45.4123 30.009C42.0894 13.6605 40.2951 2.16337 48.5358 0.169651C58.7702 -2.28927 62.2925 22.6987 64.3526 28.6798C65.3495 31.604 69.6028 0.302562 80.967 2.03045C91.5337 3.62543 73.9889 35.1927 77.046 33.8635C80.103 32.5344 105.822 21.1702 109.012 31.604C112.202 41.9713 86.35 44.5632 89.0083 46.7562C90.9356 48.2848 110.474 51.5412 105.29 60.1142C102.366 64.8991 83.1601 61.111 84.5557 63.2377C85.8183 65.1649 99.575 76.0639 92.5305 79.9184C83.7582 84.7698 65.9476 59.7819 68.0742 64.4339C70.2009 69.0859 77.9764 86.9629 68.0078 90.8839C58.1056 94.8049 58.1056 64.4339 56.2448 66.0953C54.4505 67.7568 42.3552 76.3962 38.833 70.548C34.3139 63.0383 55.5803 49.0822 50.9947 51.2089C46.3427 53.3355 22.8832 64.0351 20.8895 55.0634C18.8958 46.0917 43.2856 41.7055 40.0292 40.7086C35.4437 39.2466 19.8927 35.6579 23.7472 29.4773C28.9973 21.1037 45.9439 32.4015 45.4123 30.009Z" fill="#FBCC6C"/>
    <path d="M58.4379 37.1198C57.7733 37.1863 56.9758 37.4521 56.1118 37.9173C51.3934 40.5092 55.7131 49.4809 57.9062 50.5442C58.7037 50.943 47.3395 65.9623 40.8931 85.3014C32.5859 110.555 36.5069 121.986 37.7696 122.052C39.3646 122.119 38.2348 109.558 44.1495 89.2889C47.9376 76.1968 60.3651 52.2721 61.4284 52.7373C62.5582 53.2025 73.1914 55.9937 75.3845 50.2784C78.3751 42.6358 65.6152 44.8954 64.8178 44.696C63.8209 44.4301 63.2228 36.5882 58.4379 37.1198ZM59.6341 40.3763C62.4253 40.5092 61.5614 48.6834 61.0297 48.5505C58.9695 48.0853 55.7796 41.4396 58.9695 40.4427C59.2353 40.3763 59.4347 40.3763 59.6341 40.3763ZM70.7325 47.0884C70.9983 47.0884 71.1977 47.1549 71.397 47.2214C74.1882 48.4176 71.6629 49.348 69.935 49.1486C67.4096 48.8828 66.2798 49.348 66.3463 48.6834C66.4127 48.2847 69.071 46.9555 70.7325 47.0884Z" fill="#B2A8A2"/>
</svg>
